<svg width="1427" height="1024" viewBox="0 0 1427 1024" fill="none" xmlns="http://www.w3.org/2000/svg">
<line y1="-1" x2="914.002" y2="-1" transform="matrix(-0.00226939 0.999997 -0.999998 -0.0021473 81.2148 1)" stroke="white" stroke-opacity="0.06" stroke-width="2"/>
<line y1="-1" x2="914.002" y2="-1" transform="matrix(-0.00226939 0.999997 -0.999998 -0.0021473 172.729 111)" stroke="white" stroke-opacity="0.06" stroke-width="2"/>
<line y1="-1" x2="914.002" y2="-1" transform="matrix(-0.00226939 0.999997 -0.999998 -0.0021473 264.242 221)" stroke="white" stroke-opacity="0.06" stroke-width="2"/>
<line y1="-1" x2="914.002" y2="-1" transform="matrix(-0.00226939 0.999997 -0.999998 -0.0021473 337.214 15)" stroke="white" stroke-opacity="0.06" stroke-width="2"/>
<line y1="-1" x2="914.002" y2="-1" transform="matrix(-0.00226939 0.999997 -0.999998 -0.0021473 410.187 -191)" stroke="white" stroke-opacity="0.06" stroke-width="2"/>
<line y1="-1" x2="914.002" y2="-1" transform="matrix(-0.00226939 0.999997 -0.999998 -0.0021473 483.195 111)" stroke="white" stroke-opacity="0.06" stroke-width="2"/>
<line y1="-1" x2="914.002" y2="-1" transform="matrix(-0.00226939 0.999997 -0.999998 -0.0021473 556.187 181)" stroke="white" stroke-opacity="0.06" stroke-width="2"/>
<line y1="-1" x2="914.002" y2="-1" transform="matrix(-0.00226939 0.999997 -0.999998 -0.0021473 647.682 181)" stroke="white" stroke-opacity="0.06" stroke-width="2"/>
<line y1="-1" x2="914.002" y2="-1" transform="matrix(-0.00226939 0.999997 -0.999998 -0.0021473 739.177 28)" stroke="white" stroke-opacity="0.06" stroke-width="2"/>
<line y1="-1" x2="914.002" y2="-1" transform="matrix(-0.00226939 0.999997 -0.999998 -0.0021473 830.672 127)" stroke="white" stroke-opacity="0.06" stroke-width="2"/>
<line y1="-1" x2="914.002" y2="-1" transform="matrix(-0.00226939 0.999997 -0.999998 -0.0021473 922.168 226)" stroke="white" stroke-opacity="0.06" stroke-width="2"/>
<line y1="-1" x2="914.002" y2="-1" transform="matrix(-0.00226939 0.999997 -0.999998 -0.0021473 1013.66 28)" stroke="white" stroke-opacity="0.06" stroke-width="2"/>
<line y1="-1" x2="914.002" y2="-1" transform="matrix(-0.00226939 0.999997 -0.999998 -0.0021473 1105.16 -170)" stroke="white" stroke-opacity="0.06" stroke-width="2"/>
<line y1="-1" x2="914.002" y2="-1" transform="matrix(-0.00226939 0.999997 -0.999998 -0.0021473 1196.65 75)" stroke="white" stroke-opacity="0.06" stroke-width="2"/>
<line y1="-1" x2="914.002" y2="-1" transform="matrix(-0.00226939 0.999997 -0.999998 -0.0021473 1288.15 320)" stroke="white" stroke-opacity="0.06" stroke-width="2"/>
<line y1="-1" x2="914.002" y2="-1" transform="matrix(-0.00226939 0.999997 -0.999998 -0.0021473 1379.64 75)" stroke="white" stroke-opacity="0.06" stroke-width="2"/>
<line y1="180" x2="1430" y2="180" stroke="white" stroke-opacity="0.06" stroke-width="2"/>
<line y1="265" x2="1430" y2="265" stroke="white" stroke-opacity="0.06" stroke-width="2"/>
<line y1="350" x2="1430" y2="350" stroke="white" stroke-opacity="0.06" stroke-width="2"/>
<line y1="435" x2="1430" y2="435" stroke="white" stroke-opacity="0.06" stroke-width="2"/>
<line y1="520" x2="1430" y2="520" stroke="white" stroke-opacity="0.06" stroke-width="2"/>
<line y1="605" x2="1430" y2="605" stroke="white" stroke-opacity="0.06" stroke-width="2"/>
<line y1="690" x2="1430" y2="690" stroke="white" stroke-opacity="0.06" stroke-width="2"/>
<line y1="775" x2="1430" y2="775" stroke="white" stroke-opacity="0.06" stroke-width="2"/>
<line y1="860" x2="1430" y2="860" stroke="white" stroke-opacity="0.06" stroke-width="2"/>
<line y1="945" x2="1430" y2="945" stroke="white" stroke-opacity="0.06" stroke-width="2"/>
</svg>
