<svg width="165" height="30" viewBox="0 0 165 30" fill="none" xmlns="http://www.w3.org/2000/svg">
<g id="logo">
<g id="REWIO">
<path d="M0 0L31.6993 0V15L26.3554 19.1004L32.3133 30H18.1236L13.5984 21.7155V30H0L0 0ZM12.7012 8.32636V16.4648H18.1236V8.32636H16.6174V0L14.183 0V8.32636H12.7012Z" fill="#16FF11"/>
<path d="M34.519 0L66.2183 0V8.32636H48.1174V10.8368H66.2183V19.1632L48.1174 19.1632V21.6736L66.2183 21.6736V30L34.519 30V0Z" fill="#16FF11"/>
<path d="M101.556 0L114.245 0L111.516 30H94.302L91.5959 23.0753L88.8671 30H71.6759L68.9471 0L81.6359 0L83.5006 20.6276L87.0025 11.6736L96.1894 11.6736L99.6913 20.6276L101.556 0Z" fill="#16FF11"/>
<path d="M116.974 30V0L130.572 0V30H116.974Z" fill="#16FF11"/>
<path d="M133.301 30V0L165 0V30H133.301ZM146.381 10.127V19.8646H148.075V30H150.509V19.8646H151.991V10.127H146.381Z" fill="#16FF11"/>
</g>
<path id="Rectangle 160" d="M79.2879 0.00842285L87.0145 0.00842285L88.2846 4.87719L94.6352 4.87719L95.6936 0.00842285L102.997 0.00842285L105.42 23.768H93.1418L91.5542 21.7148L90.0724 23.768L76.5244 24.0518L79.2879 0.00842285Z" fill="#16FF11"/>
<path id="Vector 14" d="M108.373 5.33307C107.988 4.63893 107.683 4.23984 106.98 3.80016C106.683 3.61377 106.515 3.47927 106.162 3.40695C105.852 3.34328 105.658 3.34906 105.348 3.41446C104.751 3.54022 104.577 3.93105 104.103 4.28467C102.439 5.52491 101.406 6.86824 100.007 8.35651C99.6112 8.77813 99.654 8.69519 99.124 8.96776C98.6678 9.20235 96.84 9.21781 96.84 9.21781C96.84 9.21781 90.8225 9.69818 86.2915 9.31501C85.4817 9.24653 84.7241 9.21495 84.2218 9.10508C83.7195 8.99521 82.8398 8.71707 82.8398 8.71707L78.6694 4.91978C78.6694 4.91978 77.3462 3.58466 76.277 3.68234C75.5248 3.75104 75.1321 4.07157 74.5933 4.55659C73.8597 5.21687 73.7053 5.82361 73.4856 6.74228C73.2608 7.68176 73.4181 8.24615 73.5082 9.2038C73.6407 10.6102 73.9088 11.3791 74.2928 12.746C74.8561 14.7517 75.3508 15.8317 76.1561 17.7668C76.7839 19.2755 77.8831 21.5866 77.8831 21.5866C77.8831 21.5866 78.4504 21.9919 78.8281 22.1504C80.251 22.7476 82.721 23.0305 82.721 23.0305L83.6608 23.0219C83.6608 23.0219 84.4071 22.7791 84.847 22.553C86.0247 21.9476 86.102 20.9176 87.2699 20.2979C87.6204 20.1119 88.206 19.8885 88.206 19.8885L94.5339 19.8302C94.5339 19.8302 95.0426 20.0536 95.3521 20.2234C96.6267 20.9229 97.6392 22.4351 97.6392 22.4351C97.6392 22.4351 98.317 22.8947 98.7442 22.8829C99.0176 22.8754 99.9154 22.9193 100.184 22.8696C101.743 22.5809 102.298 22.5534 103.731 21.921C104.106 21.7556 104.7 21.3395 104.7 21.3395C104.7 21.3395 105.694 19.001 106.292 17.4891C107.182 15.2405 107.931 14.0336 108.432 11.6872C108.766 10.1188 109.059 9.20835 108.895 7.61823C108.802 6.7104 108.824 6.14607 108.373 5.33307Z" fill="black"/>
<rect id="Rectangle 148" x="80.833" y="12.5" width="1.66667" height="5" fill="white"/>
<rect id="Rectangle 149" x="79.166" y="15.8333" width="1.66667" height="5" transform="rotate(-90 79.166 15.8333)" fill="white"/>
<ellipse id="Ellipse 32" cx="99.8411" cy="13.6321" rx="1.19074" ry="1.13199" fill="white"/>
<ellipse id="Ellipse 33" cx="101.826" cy="15.5186" rx="1.19074" ry="1.13199" fill="white"/>
<ellipse id="Ellipse 34" cx="99.8411" cy="17.4055" rx="1.19074" ry="1.13199" fill="white"/>
<ellipse id="Ellipse 35" cx="97.8568" cy="15.5186" rx="1.19074" ry="1.13199" fill="white"/>
</g>
</svg>
