<svg width="24" height="28" viewBox="0 0 24 28" fill="none" xmlns="http://www.w3.org/2000/svg">
<g filter="url(#filter0_d_225_1692)">
<path d="M13.6152 0C14.7396 4.63407 16.0066 6.94032 19.7401 10.5898C14.5715 11.6325 12.3729 13.0503 9.55181 16.9254C8.84186 12.5718 8.00451 10.2582 4.09211 6.83302C9.14273 5.43286 11.3327 4.03313 13.6152 0Z" fill="url(#paint0_linear_225_1692)"/>
<path d="M13.6152 0C14.7396 4.63407 16.0066 6.94032 19.7401 10.5898C14.5715 11.6325 12.3729 13.0503 9.55181 16.9254C8.84186 12.5718 8.00451 10.2582 4.09211 6.83302C9.14273 5.43286 11.3327 4.03313 13.6152 0Z" fill="white"/>
<path d="M15.2051 13.4873C15.6306 15.241 16.1101 16.1138 17.523 17.495C15.567 17.8896 14.7349 18.4262 13.6673 19.8927C13.3986 18.245 13.0817 17.3695 11.6011 16.0732C13.5125 15.5433 14.3413 15.0136 15.2051 13.4873Z" fill="white"/>
</g>
<defs>
<filter id="filter0_d_225_1692" x="0.0917969" y="0" width="23.6484" height="27.8926" filterUnits="userSpaceOnUse" color-interpolation-filters="sRGB">
<feFlood flood-opacity="0" result="BackgroundImageFix"/>
<feColorMatrix in="SourceAlpha" type="matrix" values="0 0 0 0 0 0 0 0 0 0 0 0 0 0 0 0 0 0 127 0" result="hardAlpha"/>
<feOffset dy="4"/>
<feGaussianBlur stdDeviation="2"/>
<feComposite in2="hardAlpha" operator="out"/>
<feColorMatrix type="matrix" values="0 0 0 0 0 0 0 0 0 0 0 0 0 0 0 0 0 0 0.25 0"/>
<feBlend mode="normal" in2="BackgroundImageFix" result="effect1_dropShadow_225_1692"/>
<feBlend mode="normal" in="SourceGraphic" in2="effect1_dropShadow_225_1692" result="shape"/>
</filter>
<linearGradient id="paint0_linear_225_1692" x1="15.0424" y1="4.3352" x2="6.36964" y2="12.1176" gradientUnits="userSpaceOnUse">
<stop stop-color="white"/>
<stop offset="0.712037" stop-color="#E4214F"/>
</linearGradient>
</defs>
</svg>
