<svg width="41" height="41" viewBox="0 0 41 41" fill="none" xmlns="http://www.w3.org/2000/svg">
<g filter="url(#filter0_d_1339_699)">
<path d="M13.1328 6.28299C18.8438 10.9676 22.5611 12.6395 30.5818 13.6739C25.1598 19.782 23.7617 23.5857 23.8841 31.0093C18.9473 26.2853 15.7547 24.2038 7.72167 23.6137C12.6645 17.1733 14.0689 13.4002 13.1328 6.28299Z" fill="url(#paint0_linear_1339_699)"/>
<path d="M13.1328 6.28299C18.8438 10.9676 22.5611 12.6395 30.5818 13.6739C25.1598 19.782 23.7617 23.5857 23.8841 31.0093C18.9473 26.2853 15.7547 24.2038 7.72167 23.6137C12.6645 17.1733 14.0689 13.4002 13.1328 6.28299Z" fill="white"/>
<path d="M27.6729 21.4857C29.8342 23.2586 31.241 23.8914 34.2764 24.2828C32.2245 26.5944 31.6953 28.0339 31.7417 30.8434C29.8733 29.0556 28.6651 28.2679 25.625 28.0445C27.4956 25.6072 28.0271 24.1792 27.6729 21.4857Z" fill="white"/>
</g>
<defs>
<filter id="filter0_d_1339_699" x="3.72168" y="6.28299" width="34.5547" height="32.7263" filterUnits="userSpaceOnUse" color-interpolation-filters="sRGB">
<feFlood flood-opacity="0" result="BackgroundImageFix"/>
<feColorMatrix in="SourceAlpha" type="matrix" values="0 0 0 0 0 0 0 0 0 0 0 0 0 0 0 0 0 0 127 0" result="hardAlpha"/>
<feOffset dy="4"/>
<feGaussianBlur stdDeviation="2"/>
<feComposite in2="hardAlpha" operator="out"/>
<feColorMatrix type="matrix" values="0 0 0 0 0 0 0 0 0 0 0 0 0 0 0 0 0 0 0.25 0"/>
<feBlend mode="normal" in2="BackgroundImageFix" result="effect1_dropShadow_1339_699"/>
<feBlend mode="normal" in="SourceGraphic" in2="effect1_dropShadow_1339_699" result="shape"/>
</filter>
<linearGradient id="paint0_linear_1339_699" x1="18.9397" y1="10.3156" x2="15.4656" y2="28.0281" gradientUnits="userSpaceOnUse">
<stop stop-color="white"/>
<stop offset="0.712037" stop-color="#E4214F"/>
</linearGradient>
</defs>
</svg>
