<svg width="628" height="669" viewBox="0 0 628 669" fill="none" xmlns="http://www.w3.org/2000/svg">
<path d="M0 108.843L54.3233 72.4311C54.3233 72.4311 109.228 41.1168 147.22 27.8673C191.42 12.4524 217.96 7.80304 264.563 3.41156C303.849 -0.290511 326.508 -1.91216 365.608 3.41156C402.17 8.38959 422.301 14.9742 456.875 27.8673C487.199 39.1754 531.844 63.1922 531.844 63.1922C531.844 63.1922 532.969 91.0507 531.844 108.843C529.074 152.678 521.192 176.924 507.398 218.622C495.573 254.365 488.68 274.89 469.37 307.206C448.936 341.403 628 669 628 669L284.663 291.989L385.166 307.206C385.166 307.206 414.513 254.589 428.083 218.622C443.727 177.155 456.875 108.843 456.875 108.843C456.875 108.843 399.835 90.9781 368.73 88.0406C322.693 83.6929 301.506 78.8018 242.292 88.0406C183.077 97.2795 96.156 147.972 96.156 147.972L0 108.843Z" fill="#30FF2D"/>
<path d="M350.397 225.143L375.93 156.124C375.93 156.124 346.004 149.462 326.494 147.972C297.898 145.789 281.412 146.876 253.154 151.776C229.724 155.84 191.223 167.386 191.223 167.386C191.223 167.386 155.082 180.706 132.552 194.166C111.672 206.641 83.6591 232.752 83.6591 232.752C83.6591 232.752 91.8981 258.344 98.8702 274.055C113.443 306.892 125.728 323.529 147.22 352.313C173.004 386.846 189.167 405.602 222.189 433.289C248.166 455.069 293.899 482.2 293.899 482.2L374.3 429.877L305.307 352.313C305.307 352.313 307.608 435.245 265.108 384.227C246.094 361.401 256.959 374.988 238.489 352.313C221.274 331.181 176.012 255.034 176.012 255.034C176.012 255.034 219.82 231.738 250.438 225.143C288.6 216.924 350.397 225.143 350.397 225.143Z" fill="#30FF2D"/>
<path d="M92 138.099L17 107.099C17 107.099 65.9683 67.1347 103.5 55.0987C172.849 32.8591 288.5 78.5987 288.5 78.5987C288.5 78.5987 234.06 81.4423 200.5 90.0987C155.635 101.671 92 138.099 92 138.099Z" fill="url(#paint0_linear_437_104)"/>
<path d="M343.5 218L362.5 161C362.5 161 280.345 148.193 243.001 161C173.999 184.664 136.123 292.444 136.123 292.444C136.123 292.444 178.897 238.663 211 225.5C253.916 207.903 343.5 218 343.5 218Z" fill="url(#paint1_linear_437_104)"/>
<path d="M477 456L428.5 435L590.5 615L482.5 410.5L477 456Z" fill="url(#paint2_linear_437_104)"/>
<path d="M360.5 427.5L315.5 373.5C315.5 373.5 312 381 309.527 390.5C307.854 396.928 308 400.5 302.527 406C298.671 409.876 293.362 412.07 288 411C280.205 409.444 276.714 405.754 270 401.5C245.203 385.791 221 344.5 221 344.5L228 427.5L262 452.5L296.5 471.5L360.5 427.5Z" fill="url(#paint3_linear_437_104)"/>
<path d="M523 66.5L465 40L369 80.5C369 80.5 399.709 85.2151 419 90C437.225 94.5206 465 104 465 104L438 239.5L518.5 126.5C518.5 126.5 522.314 104.346 523 90C523.439 80.8332 523 66.5 523 66.5Z" fill="url(#paint4_linear_437_104)"/>
<defs>
<linearGradient id="paint0_linear_437_104" x1="51.5" y1="138" x2="186.5" y2="55.5" gradientUnits="userSpaceOnUse">
<stop stop-color="#0E8703"/>
<stop offset="1" stop-color="#05B603" stop-opacity="0"/>
</linearGradient>
<linearGradient id="paint1_linear_437_104" x1="369.465" y1="183.366" x2="187.088" y2="236.744" gradientUnits="userSpaceOnUse">
<stop stop-color="#068E04"/>
<stop offset="1" stop-color="#05B603" stop-opacity="0"/>
</linearGradient>
<linearGradient id="paint2_linear_437_104" x1="466" y1="411" x2="561" y2="571" gradientUnits="userSpaceOnUse">
<stop stop-color="#07A004"/>
<stop offset="1" stop-color="#09BB06" stop-opacity="0"/>
</linearGradient>
<linearGradient id="paint3_linear_437_104" x1="285.5" y1="339" x2="287" y2="472" gradientUnits="userSpaceOnUse">
<stop stop-color="#059203"/>
<stop offset="1" stop-color="#0FC50C" stop-opacity="0"/>
</linearGradient>
<linearGradient id="paint4_linear_437_104" x1="401.5" y1="150.5" x2="495.5" y2="98" gradientUnits="userSpaceOnUse">
<stop offset="0.19187" stop-color="#08A305"/>
<stop offset="1" stop-color="#08B905" stop-opacity="0"/>
</linearGradient>
</defs>
</svg>
